<?xml version="1.0" encoding="UTF-8"?><svg xmlns="http://www.w3.org/2000/svg" xmlns:xlink="http://www.w3.org/1999/xlink" contentScriptType="text/ecmascript" width="375" zoomAndPan="magnify" contentStyleType="text/css" viewBox="0 0 375 374.999991" height="374.999991" preserveAspectRatio="xMidYMid meet" version="1.0"><defs><clipPath id="clip-0"><path d="M 3.503906 0 L 369 0 L 369 375 L 3.503906 375 Z M 3.503906 0 " clip-rule="nonzero"/></clipPath></defs><g clip-path="url(#clip-0)"><path fill="rgb(100%, 100%, 100%)" d="M 0.246094 0 C -154.253906 0 -281.351562 116.78125 -297.777344 266.894531 L -368.820312 378.296875 C -380.257812 396.183594 -372.757812 420.035156 -353.222656 428.246094 L -299.753906 450.804688 L -299.753906 562.5 C -299.753906 603.9375 -266.191406 637.5 -224.753906 637.5 L -149.753906 637.5 L -149.753906 750 L 187.746094 750 L 187.746094 646.507812 C 187.746094 528.945312 235.378906 496.921875 268.679688 437.109375 C 243.140625 445.398438 216.019531 450 187.746094 450 C 42.769531 450 -74.753906 332.476562 -74.753906 187.5 C -74.753906 114.113281 -44.582031 47.84375 3.980469 0.21875 C 2.707031 0.21875 1.519531 0 0.246094 0 Z M 152.003906 0 C 147.164062 0 143.117188 3.621094 142.554688 8.421875 L 138.160156 46.363281 C 120.011719 52.664062 103.632812 62.222656 89.382812 74.558594 L 54.226562 59.324219 C 49.800781 57.414062 44.613281 59.15625 42.214844 63.355469 L 7.128906 124.144531 C 4.730469 128.34375 5.832031 133.671875 9.695312 136.523438 L 39.941406 158.933594 C 38.179688 168.160156 37.011719 177.675781 37.011719 187.425781 C 37.011719 197.175781 38.144531 206.730469 39.941406 215.992188 L 9.695312 238.402344 C 5.832031 241.289062 4.691406 246.617188 7.128906 250.78125 L 42.214844 311.570312 C 44.613281 315.773438 49.800781 317.441406 54.226562 315.527344 L 89.382812 300.367188 C 103.59375 312.667969 120.011719 322.265625 138.160156 328.5625 L 142.554688 366.503906 C 143.117188 371.378906 147.203125 375 152.003906 375 L 222.167969 375 C 227.007812 375 231.054688 371.378906 231.617188 366.578125 L 236.011719 328.636719 C 254.160156 322.335938 270.542969 312.777344 284.792969 300.4375 L 319.875 315.671875 C 324.300781 317.585938 329.484375 315.808594 331.886719 311.644531 L 366.96875 250.855469 C 369.367188 246.65625 368.339844 241.328125 364.480469 238.476562 L 334.230469 215.992188 C 335.992188 206.730469 337.085938 197.25 337.085938 187.5 C 337.085938 177.75 335.957031 168.269531 334.15625 159.007812 L 364.40625 136.523438 C 368.269531 133.636719 369.40625 128.308594 366.96875 124.144531 L 331.886719 63.355469 C 329.484375 59.15625 324.300781 57.488281 319.875 59.398438 L 284.792969 74.558594 C 270.578125 62.261719 254.089844 52.664062 235.9375 46.363281 L 231.617188 8.421875 C 231.054688 3.621094 227.007812 0 222.167969 0 Z M 187.085938 121.875 C 223.3125 121.875 252.710938 151.238281 252.710938 187.5 C 252.710938 223.726562 223.347656 253.125 187.085938 253.125 C 150.859375 253.125 121.460938 223.726562 121.460938 187.5 C 121.460938 151.238281 150.859375 121.875 187.085938 121.875 Z M 187.085938 121.875 " fill-opacity="1" fill-rule="nonzero"/></g></svg>