<?xml version="1.0" encoding="UTF-8"?>
<svg xmlns="http://www.w3.org/2000/svg" xmlns:xlink="http://www.w3.org/1999/xlink" width="300pt" height="299.999988pt" viewBox="0 0 300 299.999988" version="1.2">
<defs>
<clipPath id="clip1">
  <path d="M 23.402344 23.402344 L 276.902344 23.402344 L 276.902344 276.902344 L 23.402344 276.902344 Z M 23.402344 23.402344 "/>
</clipPath>
</defs>
<g id="surface1">
<g clip-path="url(#clip1)" clip-rule="nonzero">
<path style=" stroke:none;fill-rule:nonzero;fill:rgb(0%,0%,0%);fill-opacity:1;" d="M 150.304688 23.402344 C 80.332031 23.402344 23.402344 80.332031 23.402344 150.304688 C 23.402344 220.277344 80.332031 277.207031 150.304688 277.207031 C 220.277344 277.207031 277.207031 220.277344 277.207031 150.304688 C 277.207031 80.332031 220.277344 23.402344 150.304688 23.402344 Z M 245.621094 226.507812 C 233.714844 219.878906 219.136719 214.632812 202.847656 211.035156 C 207.339844 193.648438 209.945312 173.792969 210.128906 152.699219 L 272.351562 152.699219 C 271.816406 180.574219 261.902344 206.183594 245.621094 226.507812 Z M 53.96875 225.214844 C 38.292969 205.101562 28.78125 179.984375 28.253906 152.699219 L 90.472656 152.699219 C 90.660156 173.539062 93.207031 193.167969 97.597656 210.40625 C 81.136719 213.789062 66.207031 218.777344 54.015625 225.175781 C 53.996094 225.1875 53.988281 225.203125 53.96875 225.214844 Z M 55.621094 75.765625 C 67.191406 82.367188 81.445312 87.597656 97.335938 91.277344 C 93.105469 108.257812 90.652344 127.5 90.46875 147.910156 L 28.253906 147.910156 C 28.789062 120.246094 38.5625 94.816406 54.621094 74.570312 C 54.816406 75.054688 55.132812 75.488281 55.621094 75.765625 Z M 153.652344 92.640625 C 153.332031 92.640625 153.019531 92.617188 152.699219 92.617188 L 152.699219 28.324219 C 171.949219 30.15625 188.65625 54.007812 197.847656 88.777344 C 183.882812 91.257812 168.960938 92.640625 153.652344 92.640625 Z M 199.015625 93.425781 C 202.910156 109.761719 205.175781 128.273438 205.347656 147.910156 L 152.699219 147.910156 L 152.699219 97.421875 C 153.015625 97.421875 153.332031 97.429688 153.652344 97.429688 C 169.347656 97.429688 184.667969 95.996094 199.015625 93.425781 Z M 147.910156 92.492188 C 132.203125 92.160156 117.035156 90.5 103.066406 87.605469 C 112.320312 53.46875 128.875 30.140625 147.910156 28.324219 Z M 147.910156 97.355469 L 147.910156 147.910156 L 95.261719 147.910156 C 95.4375 127.816406 97.796875 108.886719 101.859375 92.273438 C 116.222656 95.269531 131.796875 97.019531 147.910156 97.355469 Z M 95.261719 152.699219 L 147.910156 152.699219 L 147.910156 205.398438 C 132.070312 205.441406 116.617188 206.921875 102.183594 209.585938 C 97.925781 192.675781 95.4375 173.304688 95.261719 152.699219 Z M 147.910156 210.1875 L 147.910156 272.285156 C 129.105469 270.488281 112.710938 247.691406 103.402344 214.21875 C 117.4375 211.65625 132.476562 210.230469 147.910156 210.1875 Z M 152.699219 210.269531 C 168.199219 210.503906 183.164062 212.058594 197.039062 214.789062 C 187.699219 247.945312 171.398438 270.496094 152.699219 272.277344 Z M 152.699219 205.480469 L 152.699219 152.699219 L 205.347656 152.699219 C 205.164062 173.542969 202.621094 193.117188 198.273438 210.164062 C 184.003906 207.328125 168.613281 205.71875 152.699219 205.480469 Z M 210.136719 147.910156 C 209.957031 128.027344 207.621094 109.253906 203.589844 92.597656 C 220.480469 89.21875 235.8125 84.171875 248.269531 77.632812 C 248.296875 77.621094 248.3125 77.597656 248.335938 77.582031 C 263.007812 97.3125 271.847656 121.605469 272.359375 147.910156 Z M 245.332031 73.730469 C 233.324219 79.929688 218.628906 84.734375 202.410156 87.957031 C 195.089844 60.546875 183.097656 39.457031 168.738281 29.582031 C 199.539062 34.265625 226.585938 50.515625 245.332031 73.730469 Z M 131.878906 29.582031 C 117.75 39.300781 105.917969 59.863281 98.558594 86.628906 C 83.089844 83.054688 69.207031 78.007812 57.992188 71.613281 C 57.757812 71.476562 57.496094 71.414062 57.25 71.367188 C 75.894531 49.414062 102.128906 34.105469 131.878906 29.582031 Z M 57.058594 229.027344 C 68.800781 222.984375 83.070312 218.246094 98.84375 215.035156 C 106.21875 241.28125 117.933594 261.433594 131.871094 271.019531 C 102.027344 266.488281 75.71875 251.09375 57.058594 229.027344 Z M 168.738281 271.023438 C 182.570312 261.511719 194.210938 241.605469 201.597656 215.65625 C 217.152344 219.070312 231.042969 224.042969 242.46875 230.277344 C 223.878906 251.667969 198.011719 266.574219 168.738281 271.023438 Z M 168.738281 271.023438 "/>
</g>
</g>
</svg>
