<?xml version="1.0" encoding="UTF-8"?>
<svg xmlns="http://www.w3.org/2000/svg" xmlns:xlink="http://www.w3.org/1999/xlink" width="375pt" height="374.999991pt" viewBox="0 0 375 374.999991" version="1.2">
<g id="surface1">
<path style=" stroke:none;fill-rule:nonzero;fill:rgb(100%,100%,100%);fill-opacity:1;" d="M 189.375 0 C 112.125 0 48.578125 58.390625 40.363281 133.445312 L 4.839844 189.148438 C -0.878906 198.089844 2.871094 210.015625 12.640625 214.125 L 39.375 225.402344 L 39.375 281.25 C 39.375 301.96875 56.15625 318.75 76.875 318.75 L 114.375 318.75 L 114.375 375 L 283.125 375 L 283.125 323.253906 C 283.125 264.472656 306.941406 248.460938 323.589844 218.554688 C 310.824219 222.699219 297.261719 225 283.125 225 C 210.636719 225 151.875 166.238281 151.875 93.75 C 151.875 57.054688 166.960938 23.921875 191.242188 0.109375 C 190.605469 0.109375 190.011719 0 189.375 0 Z M 265.253906 0 C 262.835938 0 260.8125 1.8125 260.53125 4.210938 L 258.332031 23.179688 C 249.257812 26.332031 241.066406 31.113281 233.941406 37.28125 L 216.363281 29.664062 C 214.152344 28.707031 211.558594 29.578125 210.359375 31.675781 L 192.816406 62.074219 C 191.617188 64.171875 192.167969 66.835938 194.097656 68.261719 L 209.222656 79.46875 C 208.34375 84.082031 207.757812 88.839844 207.757812 93.714844 C 207.757812 98.589844 208.324219 103.363281 209.222656 107.996094 L 194.097656 119.203125 C 192.167969 120.644531 191.597656 123.308594 192.816406 125.390625 L 210.359375 155.785156 C 211.558594 157.886719 214.152344 158.71875 216.363281 157.761719 L 233.941406 150.183594 C 241.050781 156.332031 249.257812 161.132812 258.332031 164.28125 L 260.53125 183.25 C 260.8125 185.6875 262.855469 187.5 265.253906 187.5 L 300.335938 187.5 C 302.753906 187.5 304.78125 185.6875 305.0625 183.289062 L 307.257812 164.320312 C 316.332031 161.167969 324.523438 156.386719 331.648438 150.21875 L 349.1875 157.835938 C 351.402344 158.792969 353.996094 157.902344 355.195312 155.824219 L 372.738281 125.425781 C 373.9375 123.328125 373.421875 120.664062 371.492188 119.238281 L 356.367188 107.996094 C 357.25 103.363281 357.796875 98.625 357.796875 93.75 C 357.796875 88.875 357.230469 84.136719 356.332031 79.503906 L 371.453125 68.261719 C 373.386719 66.816406 373.957031 64.152344 372.738281 62.074219 L 355.195312 31.675781 C 353.996094 29.578125 351.402344 28.742188 349.1875 29.699219 L 331.648438 37.28125 C 324.542969 31.128906 316.296875 26.332031 307.222656 23.179688 L 305.0625 4.210938 C 304.78125 1.8125 302.753906 0 300.335938 0 Z M 282.796875 60.9375 C 300.90625 60.9375 315.609375 75.617188 315.609375 93.75 C 315.609375 111.863281 300.925781 126.5625 282.796875 126.5625 C 264.683594 126.5625 249.984375 111.863281 249.984375 93.75 C 249.984375 75.617188 264.683594 60.9375 282.796875 60.9375 Z M 282.796875 60.9375 "/>
</g>
</svg>
